<svg xmlns="http://www.w3.org/2000/svg" xmlns:xlink="http://www.w3.org/1999/xlink" xmlns:lucid="lucid" width="3552" height="1506"><g transform="translate(0 134)" lucid:page-tab-id="0_0"><path d="M0-500h3500v2000H0z" fill="#f2f3f5"/><path d="M126.1 11.3a12 12 0 0 1 12-12h3288.25a12 12 0 0 1 12 12v1253.42a12 12 0 0 1-12 12H138.1a12 12 0 0 1-12-12z" stroke="#ced4db" stroke-width="4" fill="#fff"/><path d="M126.1-62.34a12 12 0 0 1 12-12h113.44a12 12 0 0 1 12 12v37.65a12 12 0 0 1-12 12H138.1a12 12 0 0 1-12-12z" fill="#ced4db"/><use xlink:href="#a" transform="matrix(1,0,0,1,138.1109806605603,-62.336626759069574) translate(0 30.317274305555557)"/><use xlink:href="#b" transform="matrix(1,0,0,1,138.1109806605603,-62.336626759069574) translate(100.77690972222223 30.317274305555557)"/><path d="M353.46 393.78a25 25 0 0 1 25-25H665.5a25 25 0 0 1 25 25v45.7a25 25 0 0 1-25 25H378.46a25 25 0 0 1-25-25z" stroke="#635dff" stroke-width="3" fill="#fff"/><use xlink:href="#c" transform="matrix(1,0,0,1,370.3166968685669,373.5638848850411) translate(32.55338541666667 54.60763888888889)"/><use xlink:href="#d" transform="matrix(1,0,0,1,370.3166968685669,373.5638848850411) translate(140.31814236111114 54.60763888888889)"/><path d="M226.78 560.55a25 25 0 0 1 25-25H528.4a25 25 0 0 1 25 25v47.78a25 25 0 0 1-25 25H251.8a25 25 0 0 1-25-25z" stroke="#635dff" stroke-width="3" fill="#fff"/><use xlink:href="#e" transform="matrix(1,0,0,1,243.1117269528725,540.4396573028185) translate(43.92925347222223 55.17013888888889)"/><use xlink:href="#f" transform="matrix(1,0,0,1,243.1117269528725,540.4396573028185) translate(118.94227430555557 55.17013888888889)"/><path d="M2542.8 214.13a25 25 0 0 1 25-25h255.83a25 25 0 0 1 25 25v50.94a25 25 0 0 1-25 25H2567.8a25 25 0 0 1-25-25z" stroke="#635dff" stroke-width="3" fill="#fff"/><use xlink:href="#g" transform="matrix(1,0,0,1,2558.0889841244566,194.1761672715119) translate(26.391927083333314 55.73263888888889)"/><use xlink:href="#h" transform="matrix(1,0,0,1,2558.0889841244566,194.1761672715119) translate(138.37977430555554 55.73263888888889)"/><path d="M2553.7 474.07a25 25 0 0 1 25-25h276.44a25 25 0 0 1 25 25v60.35a25 25 0 0 1-25 25H2578.7a25 25 0 0 1-25-25z" stroke="#635dff" stroke-width="3" fill="#fff"/><use xlink:href="#i" transform="matrix(1,0,0,1,2570.0225376117282,454.58777610381077) translate(27.143229166666643 61.38888888888889)"/><use xlink:href="#h" transform="matrix(1,0,0,1,2570.0225376117282,454.58777610381077) translate(155.62847222222223 61.38888888888889)"/><path d="M2569.5 955.52a25 25 0 0 1 25-25h271.55a25 25 0 0 1 25 25v60.35a25 25 0 0 1-25 25H2594.5a25 25 0 0 1-25-25z" stroke="#635dff" stroke-width="3" fill="#fff"/><use xlink:href="#j" transform="matrix(1,0,0,1,2585.5642155719825,936.0410588762949) translate(15.124782986111086 61.38888888888889)"/><use xlink:href="#h" transform="matrix(1,0,0,1,2585.5642155719825,936.0410588762949) translate(163.64691840277777 61.38888888888889)"/><path d="M1412.8 546.75a20 20 0 0 1 20-20h199.25a20 20 0 0 1 20 20v53.62a20 20 0 0 1-20 20H1432.8a20 20 0 0 1-20-20z" stroke="#635dff" stroke-width="3" fill="#fff"/><use xlink:href="#k" transform="matrix(1,0,0,1,1424.7575127723962,531.432017221549) translate(14.735026041666671 54.04513888888889)"/><use xlink:href="#l" transform="matrix(1,0,0,1,1424.7575127723962,531.432017221549) translate(73.17469618055557 54.04513888888889)"/><path d="M933.6 551.75a25 25 0 0 1 25-25h222.56a25 25 0 0 1 25 25v43.62a25 25 0 0 1-25 25H958.6a25 25 0 0 1-25-25z" stroke="#635dff" stroke-width="3" fill="#fff"/><use xlink:href="#m" transform="matrix(1,0,0,1,947.2421025822786,531.432017221549) translate(17.6733940972222 54.04513888888889)"/><use xlink:href="#n" transform="matrix(1,0,0,1,947.2421025822786,531.432017221549) translate(99.4919704861111 54.04513888888889)"/><path d="M693.5 416.66l4.1.1 5.28.32 5.02.52 4.8.7 4.6.9 4.45 1.03 4.32 1.2 4.23 1.38 4.15 1.56 4.1 1.72 4.1 1.93 4.1 2.15 4.1 2.38 4.2 2.67 4.32 3 4.48 3.4 4.7 3.9 5.07 4.56 5.6 5.48 6.48 6.9 8.33 9.7 44.4 55.6 6.47 6.9 5.6 5.5 5.06 4.56 4.7 3.9 4.5 3.4 4.3 3 4.2 2.66 4.12 2.38 4.1 2.14 4.08 1.93 4.1 1.73 4.16 1.55 4.22 1.37 4.33 1.2 4.45 1.05 4.6.88 3.26.48" stroke="#3a414a" stroke-width="3" stroke-linejoin="round" fill="none"/><path d="M693.57 415.2l-.06 2.94-1.5-.03v-2.95z" stroke="#3a414a" stroke-width=".05" fill="#3a414a"/><path d="M929.12 573.36l-13.47 6.6 1.03-14.98z" stroke="#3a414a" stroke-width="3" fill="#3a414a"/><path d="M556.42 584.4l127.83-2.32 230.38-7.92" stroke="#3a414a" stroke-width="3" stroke-linejoin="round" fill="none"/><path d="M556.48 585.9l-1.57.02v-2.95l1.53-.03z" stroke="#3a414a" stroke-width=".05" fill="#3a414a"/><path d="M929.12 573.66l-12.73 7.95-.52-15z" stroke="#3a414a" stroke-width="3" fill="#3a414a"/><path d="M1403.57 732.05a6 6 0 0 1 6-6h224.95a6 6 0 0 1 6 6v127.08a6 6 0 0 1-6 6h-224.95a6 6 0 0 1-6-6z" fill="none"/><use xlink:href="#o" transform="matrix(1,0,0,1,1415.4193252343446,733.0088044239975) translate(0 25.833333333333336)"/><use xlink:href="#p" transform="matrix(1,0,0,1,1415.4193252343446,733.0088044239975) translate(26.666666666666668 25.833333333333336)"/><use xlink:href="#q" transform="matrix(1,0,0,1,1415.4193252343446,733.0088044239975) translate(135.63802083333334 25.833333333333336)"/><use xlink:href="#r" transform="matrix(1,0,0,1,1415.4193252343446,733.0088044239975) translate(0 58.098958333333336)"/><use xlink:href="#s" transform="matrix(1,0,0,1,1415.4193252343446,733.0088044239975) translate(26.666666666666668 58.098958333333336)"/><use xlink:href="#t" transform="matrix(1,0,0,1,1415.4193252343446,733.0088044239975) translate(90.18229166666667 58.098958333333336)"/><use xlink:href="#u" transform="matrix(1,0,0,1,1415.4193252343446,733.0088044239975) translate(0 90.36458333333334)"/><use xlink:href="#v" transform="matrix(1,0,0,1,1415.4193252343446,733.0088044239975) translate(26.666666666666668 90.36458333333334)"/><use xlink:href="#w" transform="matrix(1,0,0,1,1415.4193252343446,733.0088044239975) translate(92.82552083333334 90.36458333333334)"/><use xlink:href="#x" transform="matrix(1,0,0,1,1415.4193252343446,733.0088044239975) translate(0 122.63020833333334)"/><use xlink:href="#y" transform="matrix(1,0,0,1,1415.4193252343446,733.0088044239975) translate(26.666666666666668 122.63020833333334)"/><use xlink:href="#z" transform="matrix(1,0,0,1,1415.4193252343446,733.0088044239975) translate(26.666666666666668 154.89583333333334)"/><path d="M2244.22 500.3l3.74-.07 5.03-.3 4.83-.52 4.7-.7 4.54-.85 4.44-1.05 4.38-1.2 4.3-1.4 4.25-1.6 4.23-1.77 4.23-2 4.23-2.2 4.3-2.5 4.34-2.75 4.45-3.1 4.56-3.46 4.74-3.92 4.94-4.45 5.22-5.12 5.6-5.95 6.07-7.06 6.8-8.6 7.94-10.94 10.1-15.25 18.62-31.04 33-56.1 10.1-15.24 7.93-10.94 6.8-8.6 6.1-7.05 5.58-5.96 5.22-5.1 4.94-4.46 4.72-3.92 4.57-3.47 4.44-3.1 4.35-2.75 4.28-2.48 4.24-2.22 4.23-2 4.23-1.77 4.26-1.58 4.3-1.4 4.35-1.2 4.44-1.06 4.55-.87 2.37-.35" stroke="#3a414a" stroke-width="3" stroke-linejoin="round" fill="none"/><path d="M2244.28 501.78l-1.57.04v-2.95l1.52-.04z" stroke="#3a414a" stroke-width=".05" fill="#3a414a"/><path d="M2538.3 239.82l-12.4 8.43-1.1-14.96z" stroke="#3a414a" stroke-width="3" fill="#3a414a"/><path d="M2244.22 500.36l290.5 3.66" stroke="#3a414a" stroke-width="3" stroke-linejoin="round" fill="none"/><path d="M2244.27 498.9l-.03 2.94-1.53-.02v-2.95z" stroke="#3a414a" stroke-width=".05" fill="#3a414a"/><path d="M2549.2 504.2l-13.08 7.34.2-15z" stroke="#3a414a" stroke-width="3" fill="#3a414a"/><path d="M2244.22 500.37l1.88.04 3.3.22 3.23.34 3.18.47 3.15.6 3.12.73 3.1.87 3.1 1 3.1 1.16 3.13 1.3 3.16 1.5 3.2 1.67 3.27 1.9 3.35 2.1 3.43 2.4 3.56 2.7 3.68 3.04 3.84 3.47 4.03 3.95 4.26 4.53 4.52 5.24 4.84 6.1 5.24 7.22 5.72 8.63 6.36 10.52 7.2 13.12 8.4 16.94 10.3 23.22 14.22 36.1 70.8 199.22 10.3 23.22 8.4 16.95 7.2 13.12 6.35 10.52 5.74 8.62 5.24 7.22 4.84 6.1 4.52 5.25 4.25 4.52 4.02 3.95 3.84 3.46 3.68 3.05 3.54 2.7 3.44 2.38 3.34 2.12 3.27 1.9 3.2 1.67 3.17 1.5 3.13 1.3 3.1 1.16 3.1 1 3.1.88 2 .47" stroke="#3a414a" stroke-width="3" stroke-linejoin="round" fill="none"/><path d="M2244.28 498.9l-.06 2.95-1.5-.03v-2.95z" stroke="#3a414a" stroke-width=".05" fill="#3a414a"/><path d="M2565 985.36l-13.74 6 1.67-14.9z" stroke="#3a414a" stroke-width="3" fill="#3a414a"/><path d="M1209.16 573.56h184.64" stroke="#3a414a" stroke-width="3" stroke-linejoin="round" fill="none"/><path d="M1209.2 575.04h-1.54v-2.95h1.54z" stroke="#3a414a" stroke-width=".05" fill="#3a414a"/><path d="M1408.3 573.56l-13 7.5v-15z" stroke="#3a414a" stroke-width="3" fill="#3a414a"/><path d="M1501.25 467.8a6 6 0 0 1 6-6h162.3a6 6 0 0 1 6 6v35.66a6 6 0 0 1-6 6h-162.3a6 6 0 0 1-6-6z" fill="none"/><use xlink:href="#A" transform="matrix(1,0,0,1,1506.2516181823537,466.8095301389117) translate(0 30.317274305555557)"/><use xlink:href="#B" transform="matrix(1,0,0,1,1506.2516181823537,466.8095301389117) translate(108.15972222222223 30.317274305555557)"/><path d="M322.12 729.4a25 25 0 0 1 25-25h276.64a25 25 0 0 1 25 25v47.78a25 25 0 0 1-25 25H347.12a25 25 0 0 1-25-25z" stroke="#635dff" stroke-width="3" fill="#fff"/><use xlink:href="#C" transform="matrix(1,0,0,1,338.4540380258616,709.2918725733414) translate(65.84982638888889 35.70138888888889)"/><use xlink:href="#D" transform="matrix(1,0,0,1,338.4540380258616,709.2918725733414) translate(150.85850694444446 35.70138888888889)"/><use xlink:href="#E" transform="matrix(1,0,0,1,338.4540380258616,709.2918725733414) translate(66.53342013888889 73.34461805555557)"/><path d="M651.76 753.26l5.23-.1 6.33-.4 6-.63 5.75-.85 5.5-1.05 5.33-1.25 5.17-1.44 5.04-1.64 4.97-1.84 4.9-2.06 4.87-2.3 4.87-2.54 4.93-2.85 5-3.17 5.16-3.58 5.35-4.06 5.66-4.7 6.12-5.5 6.8-6.7 8.06-8.58 10.96-12.74 45.85-56.45 8.04-8.6 6.82-6.67 6.1-5.5 5.66-4.7 5.36-4.06 5.15-3.58 5-3.18 4.93-2.84 4.88-2.55 4.87-2.3 4.9-2.05 4.96-1.84 5.04-1.64 5.16-1.45 5.32-1.24 5.5-1.05 5.75-.85 1.63-.17" stroke="#3a414a" stroke-width="3" stroke-linejoin="round" fill="none"/><path d="M651.83 754.74l-1.57.03v-2.95l1.5-.03z" stroke="#3a414a" stroke-width=".05" fill="#3a414a"/><path d="M929.12 573.73l-12.54 8.23-.86-14.97z" stroke="#3a414a" stroke-width="3" fill="#3a414a"/><path d="M1545.24 658.48a6 6 0 0 1 6-6h180.5a6 6 0 0 1 6 6v29.47a6 6 0 0 1-6 6h-180.5a6 6 0 0 1-6-6z" fill="none"/><use xlink:href="#F" transform="matrix(1,0,0,1,1550.242232467302,657.4790703220444) translate(0 25.4580078125)"/><use xlink:href="#G" transform="matrix(1,0,0,1,1550.242232467302,657.4790703220444) translate(55.5419921875 25.4580078125)"/><use xlink:href="#H" transform="matrix(1,0,0,1,1550.242232467302,657.4790703220444) translate(135.1669921875 25.4580078125)"/><use xlink:href="#I" transform="matrix(1,0,0,1,1550.242232467302,657.4790703220444) translate(167.6923828125 25.4580078125)"/><path d="M1866 474.07a25 25 0 0 1 25-25h325.2a25 25 0 0 1 25 25v52.54a25 25 0 0 1-25 25H1891a25 25 0 0 1-25-25z" stroke="#1071e5" stroke-width="3" fill="#fff"/><g><use xlink:href="#J" transform="matrix(1,0,0,1,1884.758846802722,454.1972557543712) translate(24.047743055555543 59.20138888888889)"/><use xlink:href="#K" transform="matrix(1,0,0,1,1884.758846802722,454.1972557543712) translate(232.61979166666666 59.20138888888889)"/></g><path d="M2716.92 562.43v349.1" stroke="#3a414a" stroke-width="3" stroke-linejoin="round" fill="none"/><path d="M2718.4 562.47h-2.95v-1.55h2.95z" stroke="#3a414a" stroke-width=".05" fill="#3a414a"/><path d="M2716.92 926.02l-7.5-13h15z" stroke="#3a414a" stroke-width="3" fill="#3a414a"/><path d="M1655.05 573.53l8.98-.18 9.25-.58 8.3-.87 7.58-1.12 7.02-1.34 6.6-1.55 6.33-1.77 6.2-2 6.18-2.3 6.42-2.7 7.03-3.33 8.75-4.58 39.43-22.3 7.05-3.32 6.42-2.7 6.2-2.3 6.17-2 6.32-1.78 6.6-1.55 7.03-1.34 7.56-1.1 8.3-.88 2.26-.14" stroke="#3a414a" stroke-width="3" stroke-linejoin="round" fill="none"/><path d="M1655.12 575l-1.57.04v-2.95l1.5-.05z" stroke="#3a414a" stroke-width=".05" fill="#3a414a"/><path d="M1861.5 511.27l-12.7 7.98-.56-15z" stroke="#3a414a" stroke-width="3" fill="#3a414a"/><path d="M1875.12 340.8a6 6 0 0 1 6-6h308.03a6 6 0 0 1 6 6v92.4a6 6 0 0 1-6 6h-308.03a6 6 0 0 1-6-6z" fill="none"/><g><use xlink:href="#L" transform="matrix(1,0,0,1,1880.115713548396,339.8008083915515) translate(0 25.4990234375)"/><use xlink:href="#M" transform="matrix(1,0,0,1,1880.115713548396,339.8008083915515) translate(48.2041015625 25.4990234375)"/><use xlink:href="#N" transform="matrix(1,0,0,1,1880.115713548396,339.8008083915515) translate(91.482421875 25.4990234375)"/><use xlink:href="#O" transform="matrix(1,0,0,1,1880.115713548396,339.8008083915515) translate(138.962890625 25.4990234375)"/><use xlink:href="#P" transform="matrix(1,0,0,1,1880.115713548396,339.8008083915515) translate(185.732421875 25.4990234375)"/><use xlink:href="#Q" transform="matrix(1,0,0,1,1880.115713548396,339.8008083915515) translate(224.5546875 25.4990234375)"/><use xlink:href="#R" transform="matrix(1,0,0,1,1880.115713548396,339.8008083915515) translate(0 56.9580078125)"/><use xlink:href="#S" transform="matrix(1,0,0,1,1880.115713548396,339.8008083915515) translate(59.490234375 56.9580078125)"/><use xlink:href="#T" transform="matrix(1,0,0,1,1880.115713548396,339.8008083915515) translate(86.8232421875 56.9580078125)"/><use xlink:href="#U" transform="matrix(1,0,0,1,1880.115713548396,339.8008083915515) translate(207.4794921875 56.9580078125)"/><use xlink:href="#V" transform="matrix(1,0,0,1,1880.115713548396,339.8008083915515) translate(0 88.4169921875)"/><use xlink:href="#W" transform="matrix(1,0,0,1,1880.115713548396,339.8008083915515) translate(41.5517578125 88.4169921875)"/><use xlink:href="#X" transform="matrix(1,0,0,1,1880.115713548396,339.8008083915515) translate(110.220703125 88.4169921875)"/></g><path d="M2883.15 504.28l5.12.1 6.5.4 6.38.68 6.26.93 6.14 1.16 6.02 1.4 5.9 1.65 5.76 1.9 5.64 2.1 5.5 2.3 5.4 2.53 5.24 2.75 5.1 2.95 4.97 3.14 4.8 3.35 4.68 3.54 4.5 3.72 4.34 3.9 4.15 4.1 4 4.25 3.82 4.42 3.63 4.58 3.44 4.74 3.25 4.9 3.04 5.02 2.84 5.17 2.64 5.3 2.43 5.46 2.2 5.58 2 5.72 1.75 5.83 1.53 5.95 1.3 6.08 1.04 6.2.65 5.18" stroke="#3a414a" stroke-width="3" stroke-linejoin="round" fill="none"/><path d="M2883.22 502.8l-.07 2.95-1.5-.03v-2.95z" stroke="#3a414a" stroke-width=".05" fill="#3a414a"/><path d="M3025.95 645.72l-8.23-12.54 14.98-.85z" stroke="#3a414a" stroke-width="3" fill="#3a414a"/><path d="M3190.2 650.22c23.25 0 42.1 18.86 42.1 42.12 0 23.27-18.85 42.13-42.1 42.13h-216.1c-23.27 0-42.13-18.86-42.13-42.13 0-23.26 18.86-42.12 42.12-42.12z" stroke="#3a414a" stroke-width="3" fill="#fff"/><g><use xlink:href="#Y" transform="matrix(1,0,0,1,2946.9848130473274,654.4296583256281) translate(2.3815104166666288 49.13888888888889)"/><use xlink:href="#Z" transform="matrix(1,0,0,1,2946.9848130473274,654.4296583256281) translate(171.76085069444443 49.13888888888889)"/></g><path d="M3082.1 737.47v.54l-.13 2-.2 1.96-.3 1.92-.35 1.9-.44 1.87-.52 1.87-.6 1.86-.7 1.88-.8 1.88-.9 1.9-1 1.93-1.13 1.96-1.28 2-1.44 2.08-1.6 2.14-1.84 2.2-2.07 2.3-2.38 2.43-2.72 2.55-3.15 2.72-3.67 2.9-4.33 3.15-5.2 3.43-6.3 3.82-7.92 4.34-10.26 5.08-14.18 6.28-22.7 8.93-109.28 39.33-14.17 6.3-10.26 5.07-7.92 4.34-6.33 3.82-5.2 3.44-4.32 3.15-3.67 2.9-3.14 2.72-2.72 2.55-2.37 2.42-2.08 2.3-1.83 2.2-1.62 2.14-1.43 2.07-1.28 2-1.15 1.97-1 1.93-.9 1.9-.8 1.9-.07.18" stroke="#3a414a" stroke-width="3" stroke-linejoin="round" fill="none"/><path d="M3083.58 737.54l-2.95-.06.03-1.5h2.95z" stroke="#3a414a" stroke-width=".05" fill="#3a414a"/><path d="M2799.83 926.08l-4.97-14.16 14.74 2.77z" stroke="#3a414a" stroke-width="3" fill="#3a414a"/><path d="M2954.33 856.7a6 6 0 0 1 6-6h46a6 6 0 0 1 6 6v29.47a6 6 0 0 1-6 6h-46a6 6 0 0 1-6-6z" fill="none"/><g><use xlink:href="#aa" transform="matrix(1,0,0,1,2959.3334251641763,855.7056036402653) translate(0.01220703125 25.4580078125)"/></g><path d="M3031.8 559.07a6 6 0 0 1 6-6h45.93a6 6 0 0 1 6 6v29.46a6 6 0 0 1-6 6h-45.93a6 6 0 0 1-6-6z" fill="none"/><g><use xlink:href="#ab" transform="matrix(1,0,0,1,3036.795282672003,558.065770800226) translate(0 25.4580078125)"/></g><defs><path d="M180 0v-1490h901v168H370v510h643v168H370V0H180" id="ac"/><path d="M158 0v-1118h174v172h12c41-113 157-188 290-188 26 0 70 2 91 3v181c-11-2-60-10-108-10-161 0-279 109-279 260V0H158" id="ad"/><path d="M471 26C259 26 90-98 90-318c0-256 228-303 435-329 202-27 287-16 287-108 0-139-79-219-234-219-161 0-248 86-283 164l-173-57c86-203 278-265 451-265 150 0 419 46 419 395V0H815v-152h-12C765-73 660 26 471 26zm31-159c199 0 310-134 310-271v-155c-30 35-226 55-295 64-131 17-246 59-246 186 0 116 97 176 231 176" id="ae"/><path d="M158 0v-1118h175l1 205c55-151 181-225 313-225 147 0 245 90 285 228 53-141 190-228 352-228 194 0 352 125 352 384V0h-181v-749c0-161-105-225-225-225-151 0-243 103-243 244V0H807v-767c0-124-93-207-219-207-131 0-250 92-250 270V0H158" id="af"/><path d="M628 24c-324 0-524-230-524-574 0-343 198-582 503-582 237 0 487 146 487 559v75H286c9 234 145 362 343 362 132 0 231-58 273-172l174 48C1024-91 857 24 628 24zM287-650h624c-17-190-120-322-304-322-192 0-309 151-320 322" id="ag"/><g id="a"><use transform="matrix(0.015190972222222224,0,0,0.015190972222222224,0,0)" xlink:href="#ac"/><use transform="matrix(0.015190972222222224,0,0,0.015190972222222224,17.454427083333336,0)" xlink:href="#ad"/><use transform="matrix(0.015190972222222224,0,0,0.015190972222222224,29.16666666666667,0)" xlink:href="#ae"/><use transform="matrix(0.015190972222222224,0,0,0.015190972222222224,46.63628472222223,0)" xlink:href="#af"/><use transform="matrix(0.015190972222222224,0,0,0.015190972222222224,73.8888888888889,0)" xlink:href="#ag"/></g><path d="M653-1490V0H466v-1314h-10L96-1047v-204l324-239h233" id="ah"/><use transform="matrix(0.015190972222222224,0,0,0.015190972222222224,0,0)" xlink:href="#ah" id="b"/><path d="M180 0v-1490h270l367 940c28 72 75 218 110 339 35-117 81-264 110-339l362-940h271V0h-187c2-448-5-837 7-1287-157 497-311 829-483 1287H842C666-458 514-784 354-1284c12 438 5 843 7 1284H180" id="ai"/><path d="M613 24c-304 0-509-231-509-576 0-350 205-580 509-580 305 0 511 230 511 580 0 345-206 576-511 576zm0-161c226 0 329-195 329-415 0-222-103-419-329-419-223 0-326 196-326 419 0 220 103 415 326 415" id="aj"/><path d="M677 24c-213 0-288-135-325-197h-20V0H158v-1490h180v551h14c37-59 106-193 324-193 279 0 474 222 474 576 0 356-194 580-473 580zm-27-161c209 0 317-186 317-421 0-232-105-413-317-413-206 0-314 166-314 413 0 249 111 421 314 421" id="ak"/><path d="M158 0v-1118h180V0H158zm91-1301c-68 0-125-53-125-119s57-119 125-119c69 0 126 53 126 119s-57 119-126 119" id="al"/><path d="M338-1490V0H158v-1490h180" id="am"/><g id="c"><use transform="matrix(0.015190972222222224,0,0,0.015190972222222224,0,0)" xlink:href="#ai"/><use transform="matrix(0.015190972222222224,0,0,0.015190972222222224,28.103298611111114,0)" xlink:href="#aj"/><use transform="matrix(0.015190972222222224,0,0,0.015190972222222224,46.7578125,0)" xlink:href="#ak"/><use transform="matrix(0.015190972222222224,0,0,0.015190972222222224,65.80729166666667,0)" xlink:href="#al"/><use transform="matrix(0.015190972222222224,0,0,0.015190972222222224,73.3420138888889,0)" xlink:href="#am"/><use transform="matrix(0.015190972222222224,0,0,0.015190972222222224,80.87673611111113,0)" xlink:href="#ag"/></g><path d="M338-670V0H158v-1118h173l1 207c72-158 192-221 342-221 226 0 378 139 378 422V0H872v-695c0-172-96-275-252-275-161 0-282 109-282 300" id="an"/><path d="M598-1118v154H368v674c0 100 37 144 132 144 23 0 62-6 92-12L629-6c-37 13-88 20-134 20-193 0-307-107-307-290v-688H20v-154h168v-266h180v266h230" id="ao"/><path d="M577 24c-279 0-473-224-473-580 0-354 195-576 474-576 218 0 287 134 324 193h14v-551h180V0H922v-173h-20C865-111 790 24 577 24zm27-161c203 0 314-172 314-421 0-247-108-413-314-413-212 0-317 181-317 413 0 235 108 421 317 421" id="ap"/><g id="d"><use transform="matrix(0.015190972222222224,0,0,0.015190972222222224,0,0)" xlink:href="#ac"/><use transform="matrix(0.015190972222222224,0,0,0.015190972222222224,17.454427083333336,0)" xlink:href="#ad"/><use transform="matrix(0.015190972222222224,0,0,0.015190972222222224,28.650173611111114,0)" xlink:href="#aj"/><use transform="matrix(0.015190972222222224,0,0,0.015190972222222224,47.3046875,0)" xlink:href="#an"/><use transform="matrix(0.015190972222222224,0,0,0.015190972222222224,65.68576388888889,0)" xlink:href="#ao"/><use transform="matrix(0.015190972222222224,0,0,0.015190972222222224,75.55989583333333,0)" xlink:href="#ag"/><use transform="matrix(0.015190972222222224,0,0,0.015190972222222224,93.69791666666666,0)" xlink:href="#an"/><use transform="matrix(0.015190972222222224,0,0,0.015190972222222224,112.07899305555554,0)" xlink:href="#ap"/></g><path d="M458 0L52-1490h194c108 439 233 855 324 1313 92-459 221-873 331-1313h216c110 438 234 854 330 1307 92-455 216-869 323-1307h196L1558 0h-221l-256-944c-26-95-50-200-73-331-22 122-44 223-73 331L680 0H458" id="aq"/><g id="e"><use transform="matrix(0.015190972222222224,0,0,0.015190972222222224,0,0)" xlink:href="#aq"/><use transform="matrix(0.015190972222222224,0,0,0.015190972222222224,29.075520833333336,0)" xlink:href="#ag"/><use transform="matrix(0.015190972222222224,0,0,0.015190972222222224,47.21354166666667,0)" xlink:href="#ak"/></g><g id="f"><use transform="matrix(0.015190972222222224,0,0,0.015190972222222224,0,0)" xlink:href="#ac"/><use transform="matrix(0.015190972222222224,0,0,0.015190972222222224,17.454427083333336,0)" xlink:href="#ad"/><use transform="matrix(0.015190972222222224,0,0,0.015190972222222224,28.650173611111114,0)" xlink:href="#aj"/><use transform="matrix(0.015190972222222224,0,0,0.015190972222222224,47.3046875,0)" xlink:href="#an"/><use transform="matrix(0.015190972222222224,0,0,0.015190972222222224,65.68576388888889,0)" xlink:href="#ao"/><use transform="matrix(0.015190972222222224,0,0,0.015190972222222224,75.55989583333333,0)" xlink:href="#ag"/><use transform="matrix(0.015190972222222224,0,0,0.015190972222222224,93.69791666666666,0)" xlink:href="#an"/><use transform="matrix(0.015190972222222224,0,0,0.015190972222222224,112.07899305555554,0)" xlink:href="#ap"/></g><path d="M657 26c-323 0-524-166-541-416h195c15 169 171 246 346 246 202 0 356-106 356-265 5-203-294-238-475-293-239-73-380-191-380-389 0-252 224-419 512-419 294 0 499 171 508 396H992c-17-145-151-228-328-228-193 0-321 102-321 242 0 156 175 211 284 241l149 41c160 44 422 134 422 412 0 244-197 432-541 432" id="ar"/><path d="M613 24c-304 0-509-231-509-576 0-350 205-580 509-580 216 0 392 114 453 309l-173 49c-33-115-133-197-280-197-223 0-326 196-326 419 0 220 103 415 326 415 150 0 252-85 285-206l172 49C1010-95 832 24 613 24" id="as"/><path d="M338-670V0H158v-1490h180v566c73-149 190-208 336-208 226 0 379 139 379 422V0H872v-695c0-172-96-275-252-275-161 0-282 109-282 300" id="at"/><g id="g"><use transform="matrix(0.015190972222222224,0,0,0.015190972222222224,0,0)" xlink:href="#ar"/><use transform="matrix(0.015190972222222224,0,0,0.015190972222222224,19.960937500000004,0)" xlink:href="#ag"/><use transform="matrix(0.015190972222222224,0,0,0.015190972222222224,38.402777777777786,0)" xlink:href="#ae"/><use transform="matrix(0.015190972222222224,0,0,0.015190972222222224,55.87239583333334,0)" xlink:href="#ad"/><use transform="matrix(0.015190972222222224,0,0,0.015190972222222224,67.06814236111111,0)" xlink:href="#as"/><use transform="matrix(0.015190972222222224,0,0,0.015190972222222224,84.84157986111111,0)" xlink:href="#at"/></g><path d="M481 0L54-1118h197c107 314 236 620 325 951 87-331 217-637 324-951h197L670 0H481" id="au"/><g id="h"><use transform="matrix(0.015190972222222224,0,0,0.015190972222222224,0,0)" xlink:href="#ar"/><use transform="matrix(0.015190972222222224,0,0,0.015190972222222224,19.960937500000004,0)" xlink:href="#ag"/><use transform="matrix(0.015190972222222224,0,0,0.015190972222222224,38.09895833333334,0)" xlink:href="#ad"/><use transform="matrix(0.015190972222222224,0,0,0.015190972222222224,50.29730902777779,0)" xlink:href="#au"/><use transform="matrix(0.015190972222222224,0,0,0.015190972222222224,67.78211805555557,0)" xlink:href="#al"/><use transform="matrix(0.015190972222222224,0,0,0.015190972222222224,75.3168402777778,0)" xlink:href="#as"/><use transform="matrix(0.015190972222222224,0,0,0.015190972222222224,93.0902777777778,0)" xlink:href="#ag"/></g><path d="M180 0v-1490h528c311 0 458 177 458 395 0 191-114 278-244 313v14c139 9 302 137 302 371 0 225-148 397-499 397H180zm190-168h350c232 0 321-102 321-231 0-149-120-277-311-277H370v508zm0-668h328c160 0 286-101 286-255 0-129-87-231-280-231H370v486" id="av"/><path d="M158 0v-1490h180v865h22l478-493h223L593-638 1096 0H865L456-523 338-412V0H158" id="aw"/><path d="M611 442c-248 0-391-105-460-228l146-94c47 65 117 165 314 165 178 0 307-82 307-266v-224h-17C863-141 792-18 576-18c-268 0-472-195-472-546 0-346 197-568 476-568 216 0 288 133 326 193h17v-179h175V29c0 289-215 413-487 413zm-5-620c203 0 314-146 314-390 0-237-108-403-314-403-213 0-319 180-319 403 0 230 109 390 319 390" id="ax"/><g id="i"><use transform="matrix(0.015190972222222224,0,0,0.015190972222222224,0,0)" xlink:href="#av"/><use transform="matrix(0.015190972222222224,0,0,0.015190972222222224,20.35590277777778,0)" xlink:href="#aj"/><use transform="matrix(0.015190972222222224,0,0,0.015190972222222224,39.01041666666667,0)" xlink:href="#aj"/><use transform="matrix(0.015190972222222224,0,0,0.015190972222222224,57.66493055555556,0)" xlink:href="#aw"/><use transform="matrix(0.015190972222222224,0,0,0.015190972222222224,74.73958333333334,0)" xlink:href="#al"/><use transform="matrix(0.015190972222222224,0,0,0.015190972222222224,82.27430555555557,0)" xlink:href="#an"/><use transform="matrix(0.015190972222222224,0,0,0.015190972222222224,100.65538194444446,0)" xlink:href="#ax"/></g><path d="M180 0v-1490h510c348 0 508 194 508 460 0 198-88 351-276 417L1256 0h-220L726-579c-117 2-238 0-356 1V0H180zm190-747h312c235 0 327-108 327-283 0-177-92-293-329-293H370v576" id="ay"/><g id="j"><use transform="matrix(0.015190972222222224,0,0,0.015190972222222224,0,0)" xlink:href="#ay"/><use transform="matrix(0.015190972222222224,0,0,0.015190972222222224,19.56597222222222,0)" xlink:href="#ag"/><use transform="matrix(0.015190972222222224,0,0,0.015190972222222224,37.70399305555556,0)" xlink:href="#af"/><use transform="matrix(0.015190972222222224,0,0,0.015190972222222224,64.95659722222223,0)" xlink:href="#al"/><use transform="matrix(0.015190972222222224,0,0,0.015190972222222224,72.49131944444446,0)" xlink:href="#an"/><use transform="matrix(0.015190972222222224,0,0,0.015190972222222224,90.87239583333334,0)" xlink:href="#ap"/><use transform="matrix(0.015190972222222224,0,0,0.015190972222222224,109.92187500000001,0)" xlink:href="#ag"/><use transform="matrix(0.015190972222222224,0,0,0.015190972222222224,128.05989583333334,0)" xlink:href="#ad"/></g><path d="M52 0l541-1490h220L1361 0h-200l-149-416H398L254 0H52zm404-582h497c-103-290-145-390-251-756-108 377-145 460-246 756" id="az"/><path d="M180 0v-1490h510c348 0 508 209 508 474 0 266-160 477-507 477H370V0H180zm190-706h312c236 0 327-133 327-310 0-176-91-307-329-307H370v617" id="aA"/><path d="M370-1490V0H180v-1490h190" id="aB"/><g id="k"><use transform="matrix(0.015190972222222224,0,0,0.015190972222222224,0,0)" xlink:href="#az"/><use transform="matrix(0.015190972222222224,0,0,0.015190972222222224,21.464843750000004,0)" xlink:href="#aA"/><use transform="matrix(0.015190972222222224,0,0,0.015190972222222224,41.33463541666667,0)" xlink:href="#aB"/></g><path d="M789 20c-398 0-667-293-667-764 0-473 273-766 655-766 315 0 558 198 612 487h-196c-61-191-204-311-415-311-262 0-471 207-471 590 0 380 208 588 482 588 249 0 420-165 425-427H828v-166h572v163c0 370-256 606-611 606" id="aC"/><path d="M409 0L70-1118h191c89 329 165 560 243 925 75-353 154-601 240-925h192c85 325 161 564 235 922 77-354 157-598 244-922h191L1267 0h-179c-86-307-176-590-250-913C763-588 675-308 588 0H409" id="aD"/><path d="M140 405l46-156c120 36 205 19 263-150l32-93L54-1118h197c107 313 237 620 324 950 87-331 219-637 326-950h196L606 167c-68 178-176 259-334 259-64 0-113-12-132-21" id="aE"/><g id="l"><use transform="matrix(0.015190972222222224,0,0,0.015190972222222224,0,0)" xlink:href="#aC"/><use transform="matrix(0.015190972222222224,0,0,0.015190972222222224,23.211805555555557,0)" xlink:href="#ae"/><use transform="matrix(0.015190972222222224,0,0,0.015190972222222224,40.681423611111114,0)" xlink:href="#ao"/><use transform="matrix(0.015190972222222224,0,0,0.015190972222222224,50.55555555555556,0)" xlink:href="#ag"/><use transform="matrix(0.015190972222222224,0,0,0.015190972222222224,68.13151041666667,0)" xlink:href="#aD"/><use transform="matrix(0.015190972222222224,0,0,0.015190972222222224,93.59157986111111,0)" xlink:href="#ae"/><use transform="matrix(0.015190972222222224,0,0,0.015190972222222224,110.60546875,0)" xlink:href="#aE"/></g><path d="M180 0v-1490h190v1322h690V0H180" id="aF"/><g id="m"><use transform="matrix(0.015190972222222224,0,0,0.015190972222222224,0,0)" xlink:href="#aF"/><use transform="matrix(0.015190972222222224,0,0,0.015190972222222224,17.591145833333336,0)" xlink:href="#aj"/><use transform="matrix(0.015190972222222224,0,0,0.015190972222222224,36.54947916666667,0)" xlink:href="#ae"/><use transform="matrix(0.015190972222222224,0,0,0.015190972222222224,54.01909722222223,0)" xlink:href="#ap"/></g><g id="n"><use transform="matrix(0.015190972222222224,0,0,0.015190972222222224,0,0)" xlink:href="#av"/><use transform="matrix(0.015190972222222224,0,0,0.015190972222222224,20.35590277777778,0)" xlink:href="#ae"/><use transform="matrix(0.015190972222222224,0,0,0.015190972222222224,37.825520833333336,0)" xlink:href="#am"/><use transform="matrix(0.015190972222222224,0,0,0.015190972222222224,45.36024305555556,0)" xlink:href="#ae"/><use transform="matrix(0.015190972222222224,0,0,0.015190972222222224,62.829861111111114,0)" xlink:href="#an"/><use transform="matrix(0.015190972222222224,0,0,0.015190972222222224,81.2109375,0)" xlink:href="#as"/><use transform="matrix(0.015190972222222224,0,0,0.015190972222222224,98.984375,0)" xlink:href="#ag"/><use transform="matrix(0.015190972222222224,0,0,0.015190972222222224,117.12239583333334,0)" xlink:href="#ad"/></g><path d="M295 13c-75 0-135-60-135-135s60-135 135-135 135 60 135 135S370 13 295 13" id="aG"/><g id="o"><use transform="matrix(0.013020833333333334,0,0,0.013020833333333334,0,0)" xlink:href="#ah"/><use transform="matrix(0.013020833333333334,0,0,0.013020833333333334,10.846354166666668,0)" xlink:href="#aG"/></g><path d="M538 24C308 24 148-78 108-271l171-41c32 123 123 178 257 178 156 0 256-77 256-169 0-77-54-128-164-154l-186-44c-203-48-300-148-300-305 0-192 176-326 414-326 230 0 351 112 402 269l-163 42c-31-80-94-158-238-158-133 0-233 69-233 162 0 83 57 129 188 160l169 40c203 48 298 149 298 302 0 196-179 339-441 339" id="aH"/><g id="p"><use transform="matrix(0.013020833333333334,0,0,0.013020833333333334,0,0)" xlink:href="#ay"/><use transform="matrix(0.013020833333333334,0,0,0.013020833333333334,16.770833333333336,0)" xlink:href="#ag"/><use transform="matrix(0.013020833333333334,0,0,0.013020833333333334,31.796875,0)" xlink:href="#au"/><use transform="matrix(0.013020833333333334,0,0,0.013020833333333334,46.26302083333334,0)" xlink:href="#ag"/><use transform="matrix(0.013020833333333334,0,0,0.013020833333333334,61.80989583333335,0)" xlink:href="#ad"/><use transform="matrix(0.013020833333333334,0,0,0.013020833333333334,71.84895833333334,0)" xlink:href="#aH"/><use transform="matrix(0.013020833333333334,0,0,0.013020833333333334,85.92447916666667,0)" xlink:href="#ag"/></g><path d="M65 0l393-574-370-544h210c88 136 192 297 267 435 67-142 176-302 264-435h206L661-564 1053 0H844c-94-144-206-310-287-458C484-308 366-142 273 0H65" id="aI"/><g id="q"><use transform="matrix(0.013020833333333334,0,0,0.013020833333333334,0,0)" xlink:href="#aA"/><use transform="matrix(0.013020833333333334,0,0,0.013020833333333334,17.03125,0)" xlink:href="#ad"/><use transform="matrix(0.013020833333333334,0,0,0.013020833333333334,26.627604166666668,0)" xlink:href="#aj"/><use transform="matrix(0.013020833333333334,0,0,0.013020833333333334,42.01822916666667,0)" xlink:href="#aI"/><use transform="matrix(0.013020833333333334,0,0,0.013020833333333334,56.57552083333335,0)" xlink:href="#aE"/></g><path d="M154 0v-137l495-537c165-179 249-281 249-418 0-156-121-253-280-253-170 0-278 110-278 278H158c0-264 200-443 465-443 266 0 455 183 455 416 0 161-73 288-336 568L416-179v12h687V0H154" id="aJ"/><g id="r"><use transform="matrix(0.013020833333333334,0,0,0.013020833333333334,0,0)" xlink:href="#aJ"/><use transform="matrix(0.013020833333333334,0,0,0.013020833333333334,16.263020833333336,0)" xlink:href="#aG"/></g><g id="s"><use transform="matrix(0.013020833333333334,0,0,0.013020833333333334,0,0)" xlink:href="#ay"/><use transform="matrix(0.013020833333333334,0,0,0.013020833333333334,17.031250000000004,0)" xlink:href="#ae"/><use transform="matrix(0.013020833333333334,0,0,0.013020833333333334,32.005208333333336,0)" xlink:href="#ao"/><use transform="matrix(0.013020833333333334,0,0,0.013020833333333334,40.46875,0)" xlink:href="#ag"/></g><g id="t"><use transform="matrix(0.013020833333333334,0,0,0.013020833333333334,0,0)" xlink:href="#aF"/><use transform="matrix(0.013020833333333334,0,0,0.013020833333333334,15.078125,0)" xlink:href="#al"/><use transform="matrix(0.013020833333333334,0,0,0.013020833333333334,21.536458333333336,0)" xlink:href="#af"/><use transform="matrix(0.013020833333333334,0,0,0.013020833333333334,44.895833333333336,0)" xlink:href="#al"/><use transform="matrix(0.013020833333333334,0,0,0.013020833333333334,51.35416666666667,0)" xlink:href="#ao"/><use transform="matrix(0.013020833333333334,0,0,0.013020833333333334,59.81770833333335,0)" xlink:href="#ag"/><use transform="matrix(0.013020833333333334,0,0,0.013020833333333334,75.36458333333334,0)" xlink:href="#ad"/></g><path d="M635 20c-292 0-500-160-510-396h192c11 142 145 229 315 229 187 0 323-105 323-260 0-161-125-274-346-274H488v-165h121c174 0 294-100 294-254 0-148-104-245-266-245-152 0-291 85-297 230H157c8-234 222-395 484-395 278 0 448 188 448 400 0 168-95 291-247 336v12c190 31 301 169 301 357 0 244-216 425-508 425" id="aK"/><g id="u"><use transform="matrix(0.013020833333333334,0,0,0.013020833333333334,0,0)" xlink:href="#aK"/><use transform="matrix(0.013020833333333334,0,0,0.013020833333333334,15.872395833333334,0)" xlink:href="#aG"/></g><path d="M537 14c-226 0-379-139-379-422v-710h180v695c0 172 97 275 253 275 160 0 281-109 281-300v-670h181V0H879v-209C806-46 684 14 537 14" id="aL"/><g id="v"><use transform="matrix(0.013020833333333334,0,0,0.013020833333333334,0,0)" xlink:href="#az"/><use transform="matrix(0.013020833333333334,0,0,0.013020833333333334,18.3984375,0)" xlink:href="#aL"/><use transform="matrix(0.013020833333333334,0,0,0.013020833333333334,34.16666666666667,0)" xlink:href="#ao"/><use transform="matrix(0.013020833333333334,0,0,0.013020833333333334,42.89062500000001,0)" xlink:href="#at"/></g><g id="w"><use transform="matrix(0.013020833333333334,0,0,0.013020833333333334,0,0)" xlink:href="#ar"/><use transform="matrix(0.013020833333333334,0,0,0.013020833333333334,17.109375,0)" xlink:href="#ag"/><use transform="matrix(0.013020833333333334,0,0,0.013020833333333334,32.65625,0)" xlink:href="#ad"/><use transform="matrix(0.013020833333333334,0,0,0.013020833333333334,43.111979166666664,0)" xlink:href="#au"/><use transform="matrix(0.013020833333333334,0,0,0.013020833333333334,58.09895833333332,0)" xlink:href="#al"/><use transform="matrix(0.013020833333333334,0,0,0.013020833333333334,64.55729166666666,0)" xlink:href="#as"/><use transform="matrix(0.013020833333333334,0,0,0.013020833333333334,79.79166666666666,0)" xlink:href="#ag"/></g><path d="M120-303v-155l652-1032h231v1020h202v167h-202V0H821v-303H120zm702-167v-782h-12L323-482v12h499" id="aM"/><g id="x"><use transform="matrix(0.013020833333333334,0,0,0.013020833333333334,0,0)" xlink:href="#aM"/><use transform="matrix(0.013020833333333334,0,0,0.013020833333333334,16.328125,0)" xlink:href="#aG"/></g><path d="M645 0H180v-1490h484c435 0 692 280 692 742 0 466-257 748-711 748zM370-168h263c363 0 539-218 539-580 0-358-176-574-521-574H370v1154" id="aN"/><g id="y"><use transform="matrix(0.013020833333333334,0,0,0.013020833333333334,0,0)" xlink:href="#aN"/><use transform="matrix(0.013020833333333334,0,0,0.013020833333333334,19.244791666666668,0)" xlink:href="#ae"/><use transform="matrix(0.013020833333333334,0,0,0.013020833333333334,34.21875,0)" xlink:href="#ao"/><use transform="matrix(0.013020833333333334,0,0,0.013020833333333334,43.07291666666667,0)" xlink:href="#ae"/></g><g id="z"><use transform="matrix(0.013020833333333334,0,0,0.013020833333333334,0,0)" xlink:href="#ae"/><use transform="matrix(0.013020833333333334,0,0,0.013020833333333334,14.973958333333334,0)" xlink:href="#ax"/><use transform="matrix(0.013020833333333334,0,0,0.013020833333333334,31.328125,0)" xlink:href="#ad"/><use transform="matrix(0.013020833333333334,0,0,0.013020833333333334,40.92447916666667,0)" xlink:href="#ag"/><use transform="matrix(0.013020833333333334,0,0,0.013020833333333334,56.47135416666667,0)" xlink:href="#ax"/><use transform="matrix(0.013020833333333334,0,0,0.013020833333333334,72.82552083333334,0)" xlink:href="#ae"/><use transform="matrix(0.013020833333333334,0,0,0.013020833333333334,87.79947916666667,0)" xlink:href="#ao"/><use transform="matrix(0.013020833333333334,0,0,0.013020833333333334,96.5234375,0)" xlink:href="#al"/><use transform="matrix(0.013020833333333334,0,0,0.013020833333333334,102.98177083333333,0)" xlink:href="#aj"/><use transform="matrix(0.013020833333333334,0,0,0.013020833333333334,118.97135416666664,0)" xlink:href="#an"/></g><g id="A"><use transform="matrix(0.015190972222222224,0,0,0.015190972222222224,0,0)" xlink:href="#ai"/><use transform="matrix(0.015190972222222224,0,0,0.015190972222222224,28.103298611111114,0)" xlink:href="#al"/><use transform="matrix(0.015190972222222224,0,0,0.015190972222222224,35.638020833333336,0)" xlink:href="#ap"/><use transform="matrix(0.015190972222222224,0,0,0.015190972222222224,54.6875,0)" xlink:href="#ap"/><use transform="matrix(0.015190972222222224,0,0,0.015190972222222224,73.73697916666667,0)" xlink:href="#am"/><use transform="matrix(0.015190972222222224,0,0,0.015190972222222224,81.2717013888889,0)" xlink:href="#ag"/></g><path d="M180 0v-1490h908v168H370v486h669v168H370v500h727V0H180" id="aO"/><g id="B"><use transform="matrix(0.015190972222222224,0,0,0.015190972222222224,0,0)" xlink:href="#aO"/><use transform="matrix(0.015190972222222224,0,0,0.015190972222222224,18.700086805555557,0)" xlink:href="#an"/><use transform="matrix(0.015190972222222224,0,0,0.015190972222222224,37.08116319444444,0)" xlink:href="#ap"/></g><path d="M98-1322v-168h1126v168H757V0H567v-1322H98" id="aP"/><g id="C"><use transform="matrix(0.015190972222222224,0,0,0.015190972222222224,0,0)" xlink:href="#aP"/><use transform="matrix(0.015190972222222224,0,0,0.015190972222222224,20.08246527777778,0)" xlink:href="#at"/><use transform="matrix(0.015190972222222224,0,0,0.015190972222222224,38.47873263888889,0)" xlink:href="#al"/><use transform="matrix(0.015190972222222224,0,0,0.015190972222222224,46.013454861111114,0)" xlink:href="#ad"/><use transform="matrix(0.015190972222222224,0,0,0.015190972222222224,57.20920138888889,0)" xlink:href="#ap"/></g><path d="M158 418v-1536h174v179h20c37-59 106-193 324-193 279 0 474 222 474 576 0 356-194 580-473 580-213 0-288-135-325-197h-14v591H158zm492-555c209 0 317-186 317-421 0-232-105-413-317-413-206 0-314 166-314 413 0 249 111 421 314 421" id="aQ"/><g id="D"><use transform="matrix(0.015190972222222224,0,0,0.015190972222222224,0,0)" xlink:href="#aQ"/><use transform="matrix(0.015190972222222224,0,0,0.015190972222222224,19.35329861111111,0)" xlink:href="#ae"/><use transform="matrix(0.015190972222222224,0,0,0.015190972222222224,36.82291666666667,0)" xlink:href="#ad"/><use transform="matrix(0.015190972222222224,0,0,0.015190972222222224,49.02126736111112,0)" xlink:href="#ao"/><use transform="matrix(0.015190972222222224,0,0,0.015190972222222224,59.8068576388889,0)" xlink:href="#aE"/></g><g id="E"><use transform="matrix(0.015190972222222224,0,0,0.015190972222222224,0,0)" xlink:href="#ae"/><use transform="matrix(0.015190972222222224,0,0,0.015190972222222224,17.469618055555557,0)" xlink:href="#aQ"/><use transform="matrix(0.015190972222222224,0,0,0.015190972222222224,36.51909722222223,0)" xlink:href="#aQ"/><use transform="matrix(0.015190972222222224,0,0,0.015190972222222224,55.5685763888889,0)" xlink:href="#am"/><use transform="matrix(0.015190972222222224,0,0,0.015190972222222224,63.103298611111114,0)" xlink:href="#al"/><use transform="matrix(0.015190972222222224,0,0,0.015190972222222224,70.63802083333334,0)" xlink:href="#as"/><use transform="matrix(0.015190972222222224,0,0,0.015190972222222224,88.71527777777779,0)" xlink:href="#ae"/><use transform="matrix(0.015190972222222224,0,0,0.015190972222222224,106.18489583333334,0)" xlink:href="#ao"/><use transform="matrix(0.015190972222222224,0,0,0.015190972222222224,116.36284722222223,0)" xlink:href="#al"/><use transform="matrix(0.015190972222222224,0,0,0.015190972222222224,123.89756944444446,0)" xlink:href="#aj"/><use transform="matrix(0.015190972222222224,0,0,0.015190972222222224,142.55208333333334,0)" xlink:href="#an"/></g><path d="M763 24c-353 0-583-224-583-531v-983h190v968c0 214 149 370 393 370 243 0 391-156 391-370v-968h190v983c0 307-230 531-581 531" id="aR"/><g id="F"><use transform="matrix(0.0126953125,0,0,0.0126953125,0,0)" xlink:href="#aR"/><use transform="matrix(0.0126953125,0,0,0.0126953125,19.34765625,0)" xlink:href="#aH"/><use transform="matrix(0.0126953125,0,0,0.0126953125,33.0712890625,0)" xlink:href="#ag"/></g><g id="G"><use transform="matrix(0.0126953125,0,0,0.0126953125,0,0)" xlink:href="#as"/><use transform="matrix(0.0126953125,0,0,0.0126953125,15.107421875,0)" xlink:href="#ae"/><use transform="matrix(0.0126953125,0,0,0.0126953125,29.70703125,0)" xlink:href="#aH"/><use transform="matrix(0.0126953125,0,0,0.0126953125,43.4306640625,0)" xlink:href="#ag"/><use transform="matrix(0.0126953125,0,0,0.0126953125,58.5888671875,0)" xlink:href="#aH"/></g><path d="M678-1118v154H420V0H240v-964H20v-154h220v-149c0-194 155-293 318-293 85 0 141 18 168 30l-50 154c-19-6-47-17-97-17-111 0-159 58-159 166v109h258" id="aS"/><g id="H"><use transform="matrix(0.0126953125,0,0,0.0126953125,0,0)" xlink:href="#aj"/><use transform="matrix(0.0126953125,0,0,0.0126953125,15.58984375,0)" xlink:href="#aS"/></g><g id="I"><use transform="matrix(0.0126953125,0,0,0.0126953125,0,0)" xlink:href="#al"/><use transform="matrix(0.0126953125,0,0,0.0126953125,6.296875,0)" xlink:href="#ao"/></g><path d="M784 20c-382 0-662-292-662-764 0-473 280-766 662-766s660 293 660 766c0 472-278 764-660 764zm0-176c266 0 475-207 475-588 0-383-209-590-475-590-268 0-477 208-477 590 0 380 209 588 477 588" id="aT"/><g id="J"><use transform="matrix(0.015190972222222224,0,0,0.015190972222222224,0,0)" xlink:href="#aT"/><use transform="matrix(0.015190972222222224,0,0,0.015190972222222224,23.789062500000004,0)" xlink:href="#ad"/><use transform="matrix(0.015190972222222224,0,0,0.015190972222222224,34.98480902777778,0)" xlink:href="#as"/><use transform="matrix(0.015190972222222224,0,0,0.015190972222222224,52.758246527777786,0)" xlink:href="#at"/><use transform="matrix(0.015190972222222224,0,0,0.015190972222222224,71.1545138888889,0)" xlink:href="#ag"/><use transform="matrix(0.015190972222222224,0,0,0.015190972222222224,89.29253472222223,0)" xlink:href="#aH"/><use transform="matrix(0.015190972222222224,0,0,0.015190972222222224,105.71397569444446,0)" xlink:href="#ao"/><use transform="matrix(0.015190972222222224,0,0,0.015190972222222224,115.89192708333334,0)" xlink:href="#ad"/><use transform="matrix(0.015190972222222224,0,0,0.015190972222222224,127.60416666666669,0)" xlink:href="#ae"/><use transform="matrix(0.015190972222222224,0,0,0.015190972222222224,145.07378472222223,0)" xlink:href="#ao"/><use transform="matrix(0.015190972222222224,0,0,0.015190972222222224,155.25173611111111,0)" xlink:href="#al"/><use transform="matrix(0.015190972222222224,0,0,0.015190972222222224,162.78645833333334,0)" xlink:href="#aj"/><use transform="matrix(0.015190972222222224,0,0,0.015190972222222224,181.44097222222223,0)" xlink:href="#an"/></g><g id="K"><use transform="matrix(0.015190972222222224,0,0,0.015190972222222224,0,0)" xlink:href="#aF"/><use transform="matrix(0.015190972222222224,0,0,0.015190972222222224,17.591145833333336,0)" xlink:href="#ae"/><use transform="matrix(0.015190972222222224,0,0,0.015190972222222224,34.60503472222223,0)" xlink:href="#aE"/><use transform="matrix(0.015190972222222224,0,0,0.015190972222222224,51.48220486111112,0)" xlink:href="#ag"/><use transform="matrix(0.015190972222222224,0,0,0.015190972222222224,69.62022569444446,0)" xlink:href="#ad"/></g><g id="L"><use transform="matrix(0.0126953125,0,0,0.0126953125,0,0)" xlink:href="#av"/><use transform="matrix(0.0126953125,0,0,0.0126953125,17.01171875,0)" xlink:href="#aL"/><use transform="matrix(0.0126953125,0,0,0.0126953125,32.3857421875,0)" xlink:href="#ao"/></g><g id="M"><use transform="matrix(0.0126953125,0,0,0.0126953125,0,0)" xlink:href="#aD"/><use transform="matrix(0.0126953125,0,0,0.0126953125,20.8076171875,0)" xlink:href="#ag"/></g><g id="N"><use transform="matrix(0.0126953125,0,0,0.0126953125,0,0)" xlink:href="#aD"/><use transform="matrix(0.0126953125,0,0,0.0126953125,21.27734375,0)" xlink:href="#al"/><use transform="matrix(0.0126953125,0,0,0.0126953125,27.57421875,0)" xlink:href="#am"/><use transform="matrix(0.0126953125,0,0,0.0126953125,33.87109375,0)" xlink:href="#am"/></g><g id="O"><use transform="matrix(0.0126953125,0,0,0.0126953125,0,0)" xlink:href="#an"/><use transform="matrix(0.0126953125,0,0,0.0126953125,15.361328125,0)" xlink:href="#aj"/><use transform="matrix(0.0126953125,0,0,0.0126953125,30.951171875,0)" xlink:href="#ao"/></g><g id="P"><use transform="matrix(0.0126953125,0,0,0.0126953125,0,0)" xlink:href="#ap"/><use transform="matrix(0.0126953125,0,0,0.0126953125,15.919921875,0)" xlink:href="#aj"/></g><g id="Q"><use transform="matrix(0.0126953125,0,0,0.0126953125,0,0)" xlink:href="#al"/><use transform="matrix(0.0126953125,0,0,0.0126953125,6.296875,0)" xlink:href="#ao"/><use transform="matrix(0.0126953125,0,0,0.0126953125,14.802734375,0)" xlink:href="#aG"/></g><g id="R"><use transform="matrix(0.0126953125,0,0,0.0126953125,0,0)" xlink:href="#aP"/><use transform="matrix(0.0126953125,0,0,0.0126953125,16.783203125,0)" xlink:href="#at"/><use transform="matrix(0.0126953125,0,0,0.0126953125,32.1572265625,0)" xlink:href="#al"/><use transform="matrix(0.0126953125,0,0,0.0126953125,38.4541015625,0)" xlink:href="#aH"/></g><g id="S"><use transform="matrix(0.0126953125,0,0,0.0126953125,0,0)" xlink:href="#al"/><use transform="matrix(0.0126953125,0,0,0.0126953125,6.296875,0)" xlink:href="#aH"/></g><g id="T"><use transform="matrix(0.0126953125,0,0,0.0126953125,0,0)" xlink:href="#ax"/><use transform="matrix(0.0126953125,0,0,0.0126953125,15.9453125,0)" xlink:href="#ag"/><use transform="matrix(0.0126953125,0,0,0.0126953125,31.103515625,0)" xlink:href="#an"/><use transform="matrix(0.0126953125,0,0,0.0126953125,46.46484375,0)" xlink:href="#ag"/><use transform="matrix(0.0126953125,0,0,0.0126953125,61.623046875,0)" xlink:href="#ad"/><use transform="matrix(0.0126953125,0,0,0.0126953125,71.4111328125,0)" xlink:href="#ae"/><use transform="matrix(0.0126953125,0,0,0.0126953125,86.0107421875,0)" xlink:href="#am"/><use transform="matrix(0.0126953125,0,0,0.0126953125,92.3076171875,0)" xlink:href="#am"/><use transform="matrix(0.0126953125,0,0,0.0126953125,98.7314453125,0)" xlink:href="#aE"/></g><path d="M1096 418H916v-591h-14C865-111 790 24 577 24c-279 0-473-224-473-580 0-354 195-576 474-576 218 0 287 134 324 193h20v-179h174V418zM604-137c203 0 314-172 314-421 0-247-108-413-314-413-212 0-317 181-317 413 0 235 108 421 317 421" id="aU"/><g id="U"><use transform="matrix(0.0126953125,0,0,0.0126953125,0,0)" xlink:href="#ad"/><use transform="matrix(0.0126953125,0,0,0.0126953125,9.3564453125,0)" xlink:href="#ag"/><use transform="matrix(0.0126953125,0,0,0.0126953125,24.5146484375,0)" xlink:href="#aU"/><use transform="matrix(0.0126953125,0,0,0.0126953125,40.4345703125,0)" xlink:href="#aL"/><use transform="matrix(0.0126953125,0,0,0.0126953125,55.80859375,0)" xlink:href="#al"/><use transform="matrix(0.0126953125,0,0,0.0126953125,62.10546875,0)" xlink:href="#ad"/><use transform="matrix(0.0126953125,0,0,0.0126953125,71.4619140625,0)" xlink:href="#ag"/><use transform="matrix(0.0126953125,0,0,0.0126953125,86.6201171875,0)" xlink:href="#ap"/></g><g id="V"><use transform="matrix(0.0126953125,0,0,0.0126953125,0,0)" xlink:href="#aS"/><use transform="matrix(0.0126953125,0,0,0.0126953125,8.861328125,0)" xlink:href="#aj"/><use transform="matrix(0.0126953125,0,0,0.0126953125,24.451171875,0)" xlink:href="#ad"/></g><g id="W"><use transform="matrix(0.0126953125,0,0,0.0126953125,0,0)" xlink:href="#am"/><use transform="matrix(0.0126953125,0,0,0.0126953125,6.296875,0)" xlink:href="#ae"/><use transform="matrix(0.0126953125,0,0,0.0126953125,20.896484375,0)" xlink:href="#ad"/><use transform="matrix(0.0126953125,0,0,0.0126953125,30.2529296875,0)" xlink:href="#ax"/><use transform="matrix(0.0126953125,0,0,0.0126953125,46.1982421875,0)" xlink:href="#ag"/></g><g id="X"><use transform="matrix(0.0126953125,0,0,0.0126953125,0,0)" xlink:href="#ae"/><use transform="matrix(0.0126953125,0,0,0.0126953125,14.599609375,0)" xlink:href="#aQ"/><use transform="matrix(0.0126953125,0,0,0.0126953125,30.51953125,0)" xlink:href="#aQ"/><use transform="matrix(0.0126953125,0,0,0.0126953125,46.439453125,0)" xlink:href="#am"/><use transform="matrix(0.0126953125,0,0,0.0126953125,52.736328125,0)" xlink:href="#al"/><use transform="matrix(0.0126953125,0,0,0.0126953125,59.033203125,0)" xlink:href="#as"/><use transform="matrix(0.0126953125,0,0,0.0126953125,74.140625,0)" xlink:href="#ae"/><use transform="matrix(0.0126953125,0,0,0.0126953125,88.740234375,0)" xlink:href="#ao"/><use transform="matrix(0.0126953125,0,0,0.0126953125,97.24609375,0)" xlink:href="#al"/><use transform="matrix(0.0126953125,0,0,0.0126953125,103.54296875,0)" xlink:href="#aj"/><use transform="matrix(0.0126953125,0,0,0.0126953125,119.1328125,0)" xlink:href="#an"/><use transform="matrix(0.0126953125,0,0,0.0126953125,134.494140625,0)" xlink:href="#aG"/></g><g id="Y"><use transform="matrix(0.015190972222222224,0,0,0.015190972222222224,0,0)" xlink:href="#ai"/><use transform="matrix(0.015190972222222224,0,0,0.015190972222222224,28.103298611111114,0)" xlink:href="#ag"/><use transform="matrix(0.015190972222222224,0,0,0.015190972222222224,46.24131944444445,0)" xlink:href="#aH"/><use transform="matrix(0.015190972222222224,0,0,0.015190972222222224,62.66276041666667,0)" xlink:href="#aH"/><use transform="matrix(0.015190972222222224,0,0,0.015190972222222224,79.0842013888889,0)" xlink:href="#ae"/><use transform="matrix(0.015190972222222224,0,0,0.015190972222222224,96.55381944444446,0)" xlink:href="#ax"/><use transform="matrix(0.015190972222222224,0,0,0.015190972222222224,115.63368055555557,0)" xlink:href="#al"/><use transform="matrix(0.015190972222222224,0,0,0.015190972222222224,123.1684027777778,0)" xlink:href="#an"/><use transform="matrix(0.015190972222222224,0,0,0.015190972222222224,141.54947916666669,0)" xlink:href="#ax"/></g><path d="M784 20c-382 0-662-292-662-764 0-473 280-766 662-766s660 293 660 766c0 282-99 499-260 629l192 255h-198L1049-33C969 2 880 20 784 20zm-62-486h198l156 205c112-98 183-261 183-483 0-383-209-590-475-590-268 0-477 208-477 590 0 380 209 588 477 588 54 0 106-9 154-25" id="aV"/><g id="Z"><use transform="matrix(0.015190972222222224,0,0,0.015190972222222224,0,0)" xlink:href="#aV"/><use transform="matrix(0.015190972222222224,0,0,0.015190972222222224,23.789062500000004,0)" xlink:href="#aL"/><use transform="matrix(0.015190972222222224,0,0,0.015190972222222224,42.185329861111114,0)" xlink:href="#ag"/><use transform="matrix(0.015190972222222224,0,0,0.015190972222222224,60.32335069444445,0)" xlink:href="#aL"/><use transform="matrix(0.015190972222222224,0,0,0.015190972222222224,78.71961805555557,0)" xlink:href="#ag"/></g><path fill="#008a0e" d="M575 26C254 26 62-139 87-390h195c-13 168 129 246 305 246 202 0 370-106 400-265 38-202-254-238-427-293-212-68-349-179-316-387 40-252 276-421 566-421 289 0 487 168 458 396h-185c7-144-113-228-291-228-194 0-337 102-361 240-27 156 137 212 244 243l142 41c149 43 400 132 354 412-40 244-251 432-596 432" id="aW"/><path fill="#008a0e" d="M443 14C219 14 87-123 134-408l117-710h180L317-423c-28 171 49 275 206 275s300-105 332-300l110-670h181L961 0H787l35-209C722-47 590 14 443 14" id="aX"/><path fill="#008a0e" d="M592 24c-216 0-276-130-305-197h-18L239 0H65l247-1490h180l-92 551h15c51-63 134-193 344-193 246 0 401 170 401 447 0 348-211 709-568 709zm-24-161c267 0 411-296 411-543 0-170-78-291-250-291-269 0-405 284-405 542 0 177 81 292 244 292" id="aY"/><g id="aa"><use transform="matrix(0.0126953125,0,0,0.0126953125,0,0)" xlink:href="#aW"/><use transform="matrix(0.0126953125,0,0,0.0126953125,16.65625,0)" xlink:href="#aX"/><use transform="matrix(0.0126953125,0,0,0.0126953125,32.04296875,0)" xlink:href="#aY"/><path fill="#008a0e" d="M-1.3 5.3h50.58v1.8H-1.3z"/></g><path fill="#008a0e" d="M87 0l247-1490h510c346 0 473 206 430 472s-238 479-586 479H366L277 0H87zm307-706h312c241 0 351-138 379-311s-39-306-279-306H496" id="aZ"/><g id="ab"><use transform="matrix(0.0126953125,0,0,0.0126953125,0,0)" xlink:href="#aZ"/><use transform="matrix(0.0126953125,0,0,0.0126953125,16.60546875,0)" xlink:href="#aX"/><use transform="matrix(0.0126953125,0,0,0.0126953125,31.9921875,0)" xlink:href="#aY"/><path fill="#008a0e" d="M-1.3 5.3h50.52v1.8H-1.3z"/></g></defs></g></svg>